<svg width="323" height="60" viewBox="0 0 323 60" fill="none" xmlns="http://www.w3.org/2000/svg">
<g filter="url(#filter0_d_98_26)">
<path d="M17.4033 9.11865V21.3867C17.4033 23.1689 17.5986 24.2432 17.9893 24.6094C18.4043 24.9512 19.271 25.1221 20.5894 25.1221H22.1641C25.8018 25.1221 28.6094 24.2188 30.5869 22.4121C32.5645 20.5811 33.5532 18.1885 33.5532 15.2344V13.7329C33.5532 10.7056 32.5767 8.31299 30.6235 6.55518C28.6948 4.77295 26.168 3.88184 23.043 3.88184H20.7725C19.2344 3.88184 18.2822 4.13818 17.916 4.65088C17.5742 5.13916 17.4033 6.62842 17.4033 9.11865ZM23.9951 0.0366211C32.8574 0.0366211 38.5581 2.74658 41.0972 8.1665C41.7808 9.63135 42.1226 11.4624 42.1226 13.6597C42.1226 17.7612 40.2793 21.3379 36.5928 24.3896C34.542 26.0986 33.5166 27.5269 33.5166 28.6743C33.5166 29.0161 34.7251 31.2378 37.1421 35.3394C39.5591 39.4165 41.3169 42.1509 42.4155 43.5425C43.5386 44.9341 44.9302 45.9717 46.5903 46.6553C48.2505 47.3145 49.0806 47.937 49.0806 48.5229C49.0806 50.2563 47.1885 51.123 43.4043 51.123C40.6455 51.123 38.5825 50.4517 37.2153 49.1089C36.2632 48.1812 34.3589 45.166 31.5024 40.0635C28.646 34.9609 27.0347 32.1777 26.6685 31.7139C25.3745 30.0781 23.4092 29.2603 20.7725 29.2603C19.6494 29.2603 18.8804 29.7729 18.4653 30.7983C18.0503 31.7993 17.8428 34.0576 17.8428 37.5732C17.8428 41.0889 18.0747 43.4204 18.5386 44.5679C19.0269 45.7153 19.7593 46.814 20.7358 47.8638C21.7124 48.8892 22.2007 49.4873 22.2007 49.6582C22.2007 50.4883 20.6504 50.9033 17.5498 50.9033L16.3047 50.8667L15.0962 50.7935C14.5591 50.769 13.729 50.7568 12.606 50.7568C6.86865 50.7568 4 50.2686 4 49.292C4 48.3154 4.40283 47.583 5.2085 47.0947C7.25928 45.8252 8.35791 45.0562 8.50439 44.7876C9.06592 43.7622 9.34668 40.9424 9.34668 36.3281L9.41992 33.7646L9.45654 31.2012C9.45654 30.3467 9.45654 29.4922 9.45654 28.6377L9.3833 24.8291C9.3833 14.8926 9.13916 9.08203 8.65088 7.39746C8.18701 5.71289 7.33252 4.50439 6.0874 3.77197C4.8667 3.01514 4.25635 2.35596 4.25635 1.79443C4.25635 0.817871 6.20947 0.32959 10.1157 0.32959L11.3608 0.292969C12.2153 0.268555 13.0576 0.256348 13.8877 0.256348L21.4316 0.0366211H23.9951ZM76.876 27.2095V26.0742C76.876 24.2676 76.229 22.644 74.9351 21.2036C73.6411 19.7388 72.0542 19.0063 70.1743 19.0063H69.4785C69.1367 19.0552 68.9048 19.0796 68.7827 19.0796C67.0737 19.0796 65.4502 20.0562 63.9121 22.0093C62.3984 23.9624 61.6416 26.0498 61.6416 28.2715V28.7476C61.6416 29.5288 62.1055 29.9194 63.0332 29.9194C63.3994 29.9927 63.5947 30.0293 63.6191 30.0293L64.4614 30.0659H64.6812L64.9375 30.0293L72.0054 29.6265L73.3237 29.48C75.6919 29.48 76.876 28.7231 76.876 27.2095ZM61.6416 36.9141C61.6416 39.6973 62.6914 42.0288 64.791 43.9087C66.8906 45.7886 69.5518 46.7285 72.7744 46.7285C74.0684 46.7285 75.2402 46.5454 76.29 46.1792C77.3643 45.7886 78.5239 45.3247 79.769 44.7876C81.0386 44.2505 81.832 43.9819 82.1494 43.9819C83.126 43.9819 83.6143 44.5068 83.6143 45.5566C83.6143 46.9727 81.8076 48.4863 78.1943 50.0977C75.8506 51.1475 73.3359 51.6724 70.6504 51.6724H69.8447C65.2549 51.6724 61.4463 50.2808 58.4189 47.4976C56.7832 45.9839 55.5137 44.0552 54.6104 41.7114C53.707 39.3433 53.2554 36.8042 53.2554 34.0942L53.292 33.252V32.4097C53.292 30.0659 53.8291 27.7588 54.9033 25.4883C56.002 23.2178 57.3081 21.3501 58.8218 19.8853C62.02 16.8091 65.8164 15.2588 70.2109 15.2344C76.8516 15.2344 81.2705 17.8223 83.4678 22.998C84.1514 24.6338 84.4932 26.1353 84.4932 27.5024V28.2349C84.4932 29.9194 83.7974 31.0547 82.4058 31.6406C81.0142 32.2021 77.7305 32.666 72.5547 33.0322C67.3789 33.3984 64.5713 33.6426 64.1318 33.7646C62.4717 34.1797 61.6416 35.2295 61.6416 36.9141ZM114.889 34.5703C116.817 36.4014 117.782 38.7207 117.782 41.5283C117.782 44.3115 116.634 46.7041 114.339 48.7061C112.044 50.6836 108.871 51.6724 104.818 51.6724H103.829C99.2148 51.6724 95.6992 51.0986 93.2822 49.9512C91.9395 49.3164 91.2681 47.9004 91.2681 45.7031V44.7876C91.2681 41.98 91.793 40.5762 92.8428 40.5762C93.7217 40.5762 94.7593 41.4062 95.9556 43.0664C97.1519 44.7021 98.1528 45.8008 98.9585 46.3623C100.521 47.4365 102.352 47.9736 104.452 47.9736C106.576 47.9736 108.138 47.5342 109.139 46.6553C110.14 45.752 110.641 44.5679 110.641 43.103C110.641 41.6382 109.786 40.2832 108.077 39.0381C107.174 38.3789 105.062 37.3413 101.742 35.9253C98.4458 34.5093 95.98 33.0322 94.3442 31.4941C92.7085 29.9316 91.8906 27.7344 91.8906 24.9023C91.8906 22.0703 93.0747 19.7754 95.4429 18.0176C97.811 16.2354 100.729 15.3442 104.195 15.3442H105.184C109.725 15.3442 112.911 15.8813 114.742 16.9556C115.694 17.5171 116.17 19.0796 116.17 21.6431C116.17 24.2065 115.56 25.4883 114.339 25.4883C113.656 25.4883 112.716 24.7314 111.52 23.2178C110.348 21.6797 109.273 20.5933 108.297 19.9585C107.32 19.2993 105.965 18.9697 104.232 18.9697C102.523 18.9697 101.168 19.3604 100.167 20.1416C99.166 20.9229 98.6655 22.0581 98.6655 23.5474C98.6655 25.0122 99.5811 26.3306 101.412 27.5024C101.876 27.8198 103.902 28.7598 107.491 30.3223C111.08 31.8848 113.546 33.3008 114.889 34.5703ZM147.115 27.2095V26.0742C147.115 24.2676 146.468 22.644 145.174 21.2036C143.88 19.7388 142.293 19.0063 140.414 19.0063H139.718C139.376 19.0552 139.144 19.0796 139.022 19.0796C137.313 19.0796 135.689 20.0562 134.151 22.0093C132.638 23.9624 131.881 26.0498 131.881 28.2715V28.7476C131.881 29.5288 132.345 29.9194 133.272 29.9194C133.639 29.9927 133.834 30.0293 133.858 30.0293L134.701 30.0659H134.92L135.177 30.0293L142.245 29.6265L143.563 29.48C145.931 29.48 147.115 28.7231 147.115 27.2095ZM131.881 36.9141C131.881 39.6973 132.931 42.0288 135.03 43.9087C137.13 45.7886 139.791 46.7285 143.014 46.7285C144.308 46.7285 145.479 46.5454 146.529 46.1792C147.604 45.7886 148.763 45.3247 150.008 44.7876C151.278 44.2505 152.071 43.9819 152.389 43.9819C153.365 43.9819 153.854 44.5068 153.854 45.5566C153.854 46.9727 152.047 48.4863 148.434 50.0977C146.09 51.1475 143.575 51.6724 140.89 51.6724H140.084C135.494 51.6724 131.686 50.2808 128.658 47.4976C127.022 45.9839 125.753 44.0552 124.85 41.7114C123.946 39.3433 123.495 36.8042 123.495 34.0942L123.531 33.252V32.4097C123.531 30.0659 124.068 27.7588 125.143 25.4883C126.241 23.2178 127.547 21.3501 129.061 19.8853C132.259 16.8091 136.056 15.2588 140.45 15.2344C147.091 15.2344 151.51 17.8223 153.707 22.998C154.391 24.6338 154.732 26.1353 154.732 27.5024V28.2349C154.732 29.9194 154.037 31.0547 152.645 31.6406C151.253 32.2021 147.97 32.666 142.794 33.0322C137.618 33.3984 134.811 33.6426 134.371 33.7646C132.711 34.1797 131.881 35.2295 131.881 36.9141ZM179.745 49.585C179.745 50.5371 177.535 51.0132 173.116 51.0132H169.234L167.696 50.9399L165.389 50.9033C162.801 50.9033 161.507 50.4395 161.507 49.5117C161.507 48.8525 162.081 48.1567 163.229 47.4243C164.4 46.6675 165.182 45.7031 165.572 44.5312C165.987 43.335 166.195 39.8315 166.195 34.021C166.195 28.2104 166 24.6826 165.609 23.4375C165.243 22.1924 164.657 21.3013 163.851 20.7642C162.411 19.812 161.69 19.1162 161.69 18.6768C161.69 18.2373 161.947 17.8467 162.459 17.5049C163.973 16.4795 166.537 15.9668 170.15 15.9668H170.846C172.237 15.9668 173.226 16.6748 173.812 18.0908C174.398 19.4824 174.874 20.1782 175.24 20.1782C175.606 20.1782 176.229 19.8364 177.108 19.1528C178.011 18.4692 179.085 17.7856 180.331 17.1021C181.6 16.4185 183.004 16.0767 184.542 16.0767C186.08 16.0767 187.252 16.4795 188.058 17.2852C188.888 18.0664 189.303 19.0796 189.303 20.3247C189.278 21.5942 188.949 22.5464 188.314 23.1812C187.679 23.8159 186.996 24.1333 186.263 24.1333C185.531 24.1333 184.566 23.8403 183.37 23.2544C182.174 22.644 181.173 22.3389 180.367 22.3389C179.562 22.3389 178.683 22.6807 177.73 23.3643C176.778 24.0234 175.96 25.2197 175.277 26.9531C174.618 28.6621 174.288 31.604 174.288 35.7788C174.288 39.9292 174.581 42.6147 175.167 43.8354C175.753 45.0317 176.656 46.1304 177.877 47.1313C179.122 48.1323 179.745 48.9502 179.745 49.585ZM211.751 51.4893H210.909C209.762 51.4893 208.626 50.4272 207.503 48.3032C206.942 47.229 205.221 43.0176 202.34 35.6689C199.459 28.3203 197.701 24.0845 197.066 22.9614C196.432 21.814 195.443 20.8008 194.1 19.9219C192.757 19.0186 192.086 18.335 192.086 17.8711C192.086 17.1143 192.623 16.626 193.697 16.4062C194.771 16.1865 197.225 16.0767 201.058 16.0767C204.891 16.0767 206.808 16.626 206.808 17.7246C206.808 17.7979 206.673 18.2007 206.405 18.9331C206.136 19.6411 206.002 20.4224 206.002 21.2769C206.002 24.6216 207.906 30.7007 211.715 39.5142C212.423 41.1255 212.923 41.9312 213.216 41.9312C213.509 41.9312 213.985 41.1987 214.645 39.7339C218.575 31.0425 220.541 25.0122 220.541 21.6431C220.541 20.813 220.223 19.9341 219.588 19.0063C218.954 18.0786 218.636 17.6025 218.636 17.5781C218.636 16.5283 220.907 16.0034 225.448 16.0034H226.327C229.305 16.0034 230.794 16.5161 230.794 17.5415C230.794 18.4204 230.147 19.2871 228.854 20.1416C227.56 20.9717 226.571 22.0093 225.887 23.2544C225.57 23.8159 223.946 27.7344 221.017 35.0098C218.087 42.2607 216.109 46.8262 215.084 48.7061C214.059 50.5615 212.948 51.4893 211.751 51.4893ZM257.491 27.2095V26.0742C257.491 24.2676 256.844 22.644 255.55 21.2036C254.256 19.7388 252.669 19.0063 250.79 19.0063H250.094C249.752 19.0552 249.52 19.0796 249.398 19.0796C247.689 19.0796 246.065 20.0562 244.527 22.0093C243.014 23.9624 242.257 26.0498 242.257 28.2715V28.7476C242.257 29.5288 242.721 29.9194 243.648 29.9194C244.015 29.9927 244.21 30.0293 244.234 30.0293L245.077 30.0659H245.296L245.553 30.0293L252.621 29.6265L253.939 29.48C256.307 29.48 257.491 28.7231 257.491 27.2095ZM242.257 36.9141C242.257 39.6973 243.307 42.0288 245.406 43.9087C247.506 45.7886 250.167 46.7285 253.39 46.7285C254.684 46.7285 255.855 46.5454 256.905 46.1792C257.979 45.7886 259.139 45.3247 260.384 44.7876C261.654 44.2505 262.447 43.9819 262.765 43.9819C263.741 43.9819 264.229 44.5068 264.229 45.5566C264.229 46.9727 262.423 48.4863 258.81 50.0977C256.466 51.1475 253.951 51.6724 251.266 51.6724H250.46C245.87 51.6724 242.062 50.2808 239.034 47.4976C237.398 45.9839 236.129 44.0552 235.226 41.7114C234.322 39.3433 233.871 36.8042 233.871 34.0942L233.907 33.252V32.4097C233.907 30.0659 234.444 27.7588 235.519 25.4883C236.617 23.2178 237.923 21.3501 239.437 19.8853C242.635 16.8091 246.432 15.2588 250.826 15.2344C257.467 15.2344 261.886 17.8223 264.083 22.998C264.767 24.6338 265.108 26.1353 265.108 27.5024V28.2349C265.108 29.9194 264.413 31.0547 263.021 31.6406C261.629 32.2021 258.346 32.666 253.17 33.0322C247.994 33.3984 245.187 33.6426 244.747 33.7646C243.087 34.1797 242.257 35.2295 242.257 36.9141ZM271.297 1.97754C271.297 0.854492 274.3 0.292969 280.306 0.292969L283.456 0.219727C284.505 0.195312 285.519 0.183105 286.495 0.183105C288.351 0.183105 289.278 0.842285 289.278 2.16064L288.253 3.66211C287.862 4.22363 287.667 4.91943 287.667 5.74951C287.667 6.57959 288.949 8.89893 291.512 12.7075C294.076 16.5161 295.614 18.4204 296.126 18.4204C296.517 18.4204 298.019 16.6382 300.631 13.0737C303.268 9.50928 304.586 6.99463 304.586 5.52979C304.586 4.96826 304.305 4.19922 303.744 3.22266C303.182 2.24609 302.901 1.61133 302.901 1.31836C302.901 0.439453 304.769 0 308.504 0H310.042C315.023 0 317.513 0.524902 317.513 1.57471C317.513 2.33154 316.268 3.35693 313.778 4.65088C312.264 5.45654 310.726 6.82373 309.164 8.75244C302.816 16.687 299.642 21.9116 299.642 24.4263C299.642 24.7192 300.13 25.6226 301.107 27.1362C306.502 35.437 309.908 40.5151 311.324 42.3706C312.765 44.2261 314.034 45.5078 315.133 46.2158C317.354 47.6562 318.465 48.6694 318.465 49.2554C318.465 50.354 314.4 50.9033 306.271 50.9033H303.231C301.571 50.9033 300.741 50.5127 300.741 49.7314C300.741 49.3164 300.96 48.7427 301.4 48.0103C301.839 47.2534 302.059 46.7773 302.059 46.582C302.059 44.9707 300.106 41.1499 296.2 35.1196C294.466 32.4341 293.294 31.0913 292.684 31.0913C292.318 31.0913 291.085 32.5317 288.985 35.4126C285.47 40.271 283.712 43.5791 283.712 45.3369C283.712 46.0449 283.993 46.8994 284.554 47.9004C285.14 48.877 285.433 49.4141 285.433 49.5117C285.433 50.4395 283.077 50.9033 278.365 50.9033H276.864C272.713 50.9033 270.638 50.5127 270.638 49.7314C270.638 48.7061 271.737 47.644 273.934 46.5454C275.448 45.7886 276.974 44.458 278.512 42.5537C285.86 33.4717 289.535 27.771 289.535 25.4517C289.535 24.8657 288.839 23.5229 287.447 21.4233C282.125 13.3911 278.89 8.72803 277.743 7.43408C276.62 6.11572 275.265 5.0293 273.678 4.1748C272.091 3.32031 271.297 2.58789 271.297 1.97754Z" fill="url(#paint0_linear_98_26)"/>
</g>
<defs>
<filter id="filter0_d_98_26" x="0" y="0" width="322.465" height="59.6724" filterUnits="userSpaceOnUse" color-interpolation-filters="sRGB">
<feFlood flood-opacity="0" result="BackgroundImageFix"/>
<feColorMatrix in="SourceAlpha" type="matrix" values="0 0 0 0 0 0 0 0 0 0 0 0 0 0 0 0 0 0 127 0" result="hardAlpha"/>
<feOffset dy="4"/>
<feGaussianBlur stdDeviation="2"/>
<feComposite in2="hardAlpha" operator="out"/>
<feColorMatrix type="matrix" values="0 0 0 0 0 0 0 0 0 0 0 0 0 0 0 0 0 0 0.25 0"/>
<feBlend mode="normal" in2="BackgroundImageFix" result="effect1_dropShadow_98_26"/>
<feBlend mode="normal" in="SourceGraphic" in2="effect1_dropShadow_98_26" result="shape"/>
</filter>
<linearGradient id="paint0_linear_98_26" x1="160.105" y1="-18.9868" x2="160.769" y2="71.0139" gradientUnits="userSpaceOnUse">
<stop stop-color="#919090"/>
<stop offset="1" stop-color="#F6F6F6"/>
</linearGradient>
</defs>
</svg>
